<?xml version="1.0" encoding="UTF-8"?>
<svg id="Layer_2" data-name="Layer 2" xmlns="http://www.w3.org/2000/svg" xmlns:xlink="http://www.w3.org/1999/xlink" viewBox="0 0 213.89 233.38">
  <defs>
    <style>
      .cls-1 {
        fill: #1286c8;
      }

      .cls-2 {
        fill: #dff2f6;
      }

      .cls-3, .cls-4 {
        fill: none;
      }

      .cls-4 {
        clip-path: url(#clippath);
      }
    </style>
    <clipPath id="clippath">
      <rect class="cls-3" x="45.62" y="33.21" width="126.65" height="126.65"/>
    </clipPath>
  </defs>
  <g id="Layer_1-2" data-name="Layer 1">
    <g>
      <g>
        <path d="m4.65,228.63h8.5v4.29H0v-21.35h12.81v4.27H4.65v4.21h7.38v4.19h-7.38v4.4Z"/>
        <path d="m25.14,211.57c1.57,0,3.01.27,4.33.79,1.32.53,2.46,1.27,3.42,2.23.97.96,1.73,2.08,2.27,3.38s.81,2.71.81,4.25-.27,2.97-.81,4.27c-.54,1.31-1.3,2.45-2.27,3.42-.96.96-2.1,1.7-3.42,2.23-1.32.53-2.77.79-4.33.79h-8.08v-21.35h8.08Zm-.13,17.06c1.22,0,2.3-.27,3.23-.81.94-.55,1.68-1.32,2.21-2.29.53-.97.79-2.07.79-3.31s-.27-2.33-.79-3.29c-.53-.96-1.27-1.7-2.21-2.23-.93-.54-2.01-.81-3.23-.81h-3.31v12.75h3.31Z"/>
        <path d="m48.26,233.38c-1.7,0-3.2-.36-4.52-1.08-1.32-.72-2.37-1.71-3.15-2.98-.77-1.28-1.15-2.75-1.15-4.42v-13.33h4.63v13.13c0,1.32.39,2.38,1.17,3.17.79.78,1.8,1.17,3.02,1.17s2.24-.39,3.02-1.17c.79-.79,1.19-1.84,1.19-3.17v-13.13h4.6v13.33c0,1.67-.39,3.14-1.15,4.42-.77,1.27-1.81,2.26-3.15,2.98-1.33.72-2.84,1.08-4.52,1.08Z"/>
        <path d="m71.54,233.38c-1.57,0-3.03-.28-4.38-.83-1.33-.57-2.5-1.35-3.5-2.35-.99-1-1.76-2.17-2.31-3.52-.54-1.36-.81-2.82-.81-4.4s.27-3.05.81-4.42c.55-1.36,1.32-2.54,2.31-3.54,1-1.01,2.17-1.8,3.5-2.35,1.34-.57,2.8-.85,4.38-.85,1.73,0,3.32.36,4.75,1.08,1.44.71,2.65,1.7,3.63,2.98.98,1.28,1.64,2.77,1.96,4.46h-4.63c-.43-1.26-1.16-2.26-2.17-3-1.02-.75-2.2-1.13-3.54-1.13-1.2,0-2.27.3-3.23.9-.96.6-1.72,1.41-2.27,2.44-.56,1.02-.83,2.16-.83,3.44s.28,2.43.83,3.44c.55,1,1.31,1.8,2.27,2.4.96.58,2.03.88,3.23.88,1.4,0,2.61-.4,3.63-1.19,1.01-.79,1.71-1.86,2.1-3.23h4.67c-.32,1.77-.97,3.31-1.94,4.65-.96,1.32-2.17,2.35-3.63,3.08-1.46.72-3.07,1.08-4.83,1.08Z"/>
        <path d="m97.02,232.92l-4.15-7.29h-2.96v7.29h-4.65v-21.35h8.63c1.43,0,2.7.31,3.81.92,1.13.61,2.01,1.45,2.67,2.5.65,1.06.98,2.28.98,3.67s-.35,2.61-1.06,3.71c-.7,1.08-1.64,1.91-2.81,2.48l4.73,8.08h-5.19Zm-7.1-17.08v5.52h3.69c.96,0,1.71-.26,2.25-.77.55-.53.83-1.19.83-1.98s-.28-1.46-.83-1.98c-.54-.53-1.29-.79-2.25-.79h-3.69Z"/>
        <path d="m119.62,232.92l-1.5-4.06h-8.5l-1.48,4.06h-4.88l8.35-21.35h4.38l8.63,21.35h-5Zm-5.77-15.71l-2.77,7.63h5.58l-2.81-7.63Z"/>
        <path d="m140.09,215.88h-8.1v4.69h7.31v4.19h-7.31v8.17h-4.65v-21.35h12.75v4.31Z"/>
        <path d="m158.39,211.57v4.31h-5.94v17.04h-4.65v-17.04h-5.92v-4.31h16.5Z"/>
        <path d="m166.12,228.63h8.5v4.29h-13.15v-21.35h12.81v4.27h-8.17v4.21h7.38v4.19h-7.38v4.4Z"/>
        <path d="m190.28,232.92l-4.15-7.29h-2.96v7.29h-4.65v-21.35h8.63c1.43,0,2.7.31,3.81.92,1.13.61,2.01,1.45,2.67,2.5.65,1.06.98,2.28.98,3.67s-.35,2.61-1.06,3.71c-.7,1.08-1.64,1.91-2.81,2.48l4.73,8.08h-5.19Zm-7.1-17.08v5.52h3.69c.96,0,1.71-.26,2.25-.77.55-.53.83-1.19.83-1.98s-.28-1.46-.83-1.98c-.54-.53-1.29-.79-2.25-.79h-3.69Z"/>
        <path d="m205.78,233.34c-1.63,0-3.06-.29-4.31-.88-1.24-.58-2.21-1.42-2.92-2.52-.7-1.11-1.04-2.42-1.04-3.94h4.67c0,1.03.36,1.79,1.08,2.29.72.5,1.55.75,2.48.75.59,0,1.15-.09,1.67-.29.51-.19.94-.48,1.27-.85.34-.38.52-.82.52-1.35s-.2-.98-.58-1.29c-.39-.32-.91-.57-1.56-.77-.66-.21-1.36-.4-2.13-.58-.79-.19-1.6-.42-2.44-.69-.83-.26-1.61-.61-2.33-1.04-.71-.44-1.28-1.03-1.71-1.77-.42-.73-.63-1.67-.63-2.81,0-2.05.69-3.64,2.08-4.75,1.39-1.11,3.28-1.67,5.67-1.67s4.31.62,5.65,1.85c1.34,1.22,2.02,2.9,2.02,5.02h-4.56c0-.92-.33-1.59-.98-2.02-.66-.44-1.41-.67-2.25-.67-.77,0-1.46.17-2.08.5-.63.32-.94.82-.94,1.5,0,.52.19.92.56,1.21s.86.54,1.48.73c.63.2,1.31.39,2.06.56.82.21,1.65.45,2.5.73.86.28,1.65.66,2.38,1.13.73.46,1.33,1.08,1.79,1.85.46.77.69,1.74.69,2.92,0,1.54-.38,2.83-1.13,3.85-.74,1.02-1.72,1.77-2.94,2.27-1.21.48-2.56.73-4.04.73Z"/>
      </g>
      <g>
        <path class="cls-2" d="m181.21,34.52c-8.62-10.17-18.9-18.18-30.74-24.29-.83.11-1.28-.5-1.95-.78h-.06c-.06.33-.06.56-.06.89,5.17,6.73,4.61,15.23-1.39,20.9-5.56,5.23-14.45,5.39-20.4.39-6.56-5.61-7-16.06-1-21.9.11-.11.28-.28.39-.39s.28-.22.39-.33c2.11-2.22,4.73-3.45,7.78-3.72.67-.17,1.33-.39,1.95-.56C108.67-3.61,82.21-1.11,57.58,13.79,29.01,31.07,13.78,56.92,10.5,89.5c3.67.78,6.28,2.67,9.06,4.22.61.11,1.17.28,1.56.83,3.67,1.5,7.12,3.61,10.62,5.39.89.39,1.56,1.22,1.22,2.11-1.11,2.78.5,3.89,2.61,4.84.5.22.94.56,1.39.89.28-.06.56.06.72.33.56.28,1.11.44,1.67.78,1.45.83,2.67.83,3.78-.61.78-.89,1.72-1.33,2.89-.56.28.11.5.28.72.39,5.61,2.72,11.12,5.61,16.57,8.73,2.11.95,2.56,1.78,1.5,3.78-2,3.89-4.06,7.78-6.11,11.67-.94,1.78-1.83,1.95-3.95.83-8.84-4.67-17.68-9.34-26.46-14.01-3.89-2.06-7.78-4.11-11.73-6.17l-.17-.11c-1.11-.56-2.22-1.11-3.45-.22-1.17.89-.72,2.17-.44,3.28,3.34,16.23,10.28,30.74,21.12,43.3,2.11,2.39,3.61,2.11,4.73-.89,1.61-4.22,3.45-8.39,6.61-11.78,1.95-2.89,4.72-5,7.67-6.67,5.17-3,10.89-4.56,16.73-5.61.11-.06.17-.11.28-.11,1.22-.56,2.45-1,3.84-1.17.11-.06.28-.06.39-.11,11.23-3.72,17.95-12.12,23.01-22.24.67-1.39,1.22-1.67,2.28-.5.83.94,1.72,1.78,2.61,2.61,4,3.28,7.95,6.61,11.95,9.89q3.17,1.83.94,4.61c-4.89,6.11-10.28,11.78-16.62,16.4-.94.67-1.95,1.28-2.89,1.89-4.11,3.22-8.84,5.39-13.73,6.89-7.56,2.28-14.56,5.39-20.4,10.9-3,2.83-5.5,6.11-7.45,9.78-1.28,2.45-1.06,3.28,1.28,4.78,12.01,7.73,25.01,12.51,39.13,14.34.28,0,.56.17.78.22.11-.06.22-.06.28.06,8,.83,16.01.67,23.96,0,4.89-.89,9.73-1.72,14.51-3.06,5.84-1.67,11.45-3.89,16.9-6.61.56-.22,1-.72,1.72-.61h.44l.39-.39c1.11-1.17,2.61-1.72,3.95-2.5,4.84-3,9.34-6.34,13.62-10.01,1.11-.94,1.89-1.95,1-3.39-5.17-8.73-10.45-17.4-18.96-23.4-4.22-3-9.28-4.84-13.45-7.95-.61-.44-1.28-.94-1.83-1.45q-.06,0-.11-.06c-6.84-4.5-13.29-9.62-19.62-14.73-5.5-4.45-10.95-9.01-16.12-13.9-.78-.67-1.28-1.28-.89-2.45,4.45-13.67,5.06-27.68,3.95-41.86v-1.06c-.78-2.95-1.22-3.22-4.39-2.61-.11.06-.28.06-.39.06-4.28.33-7.12,2.06-9.01,6.39-2.84,6.67-8.12,11.51-14.29,15.29-1.33.83-2.61,1.06-4.06.28-5.56-2.95-11.06-5.84-16.62-8.73-.89-.44-1.5-.94-1.28-2.06.33-1.28,1.33-.78,2.06-.78,2.84.06,5.67-.17,8.34-1.11,5.84-2.11,9.01-6.5,10.34-12.4.33-1.5.5-3,.72-4.5.56-3.39,2.39-5.89,5.56-7.12,4.28-1.67,8.67-2.78,13.17-3.5,9.67-2.22,19.46-2.67,29.29-1.33,7,.94,13.9,2.45,20.4,5.45,7.34,2.78,13.95,6.84,20.01,11.78q4.84,4,8.34-1.33c2.95-4.5,5.78-9.01,8.84-13.45,1.28-1.83,1.17-3.17-.33-4.89ZM41.85,106.06c-.56.72-1.45.61-2.28.22-.83-.39-1.72-.83-2.56-1.28-1.45-.83-1.89-1.95-1.06-3.45.78-1.45,1.56-2.89,2.39-4.34.17-.33.44-.78.78-.89,1.17-.39,5.56,2.89,5.56,4.45-.56,1.72-1.45,3.67-2.84,5.28Zm27.79-25.85c.06.06.11.22.17.33.11.11.17.22.17.33.33,0,.67,0,.72.44,1.5.61,1.28,1.5.39,2.5-.28.56-.56,1.11-.83,1.67-.33,1.44-1.11,2.67-2,3.84-1.06,2.28.28,3.45,2.06,4.39,1.67.83,3.28,1.61,4.89,2.5,1.28.72,1.72,1.89,1.06,3.17-1.67,3.11-3.39,6.23-5.06,9.28-.11.67-.39,1.22-.89,1.67-1.45,3.78-2.28,4.06-5.73,2.22-5.23-2.78-10.39-5.61-15.68-8.34-1.67-.89-2.33-1.89-1.44-3.78.78-1.61.17-2.72-1.39-3.5-1.83-.89-3.56-1.78-5.34-2.72-1.61-.89-2.84-.61-3.78,1.06-.72,1.28-1.78,1.67-3.17.89-4.5-2.45-9.01-4.89-13.56-7.34-1.39-.72-2.84-1.39-4.22-2.11-1.33-.72-1.67-1.78-1-3.11,2.28-4.39,4.61-8.78,6.95-13.12.83-1.45,2.06-1.5,3.39-.78,1.83.94,3.67,1.89,5.45,2.89,1.67.89,2.89.5,3.72-1.17,1-1.83,1.95-3.67,2.89-5.45.72-1.39,1.78-1.89,3.28-1.17,9.62,5.17,19.29,10.28,28.96,15.4Z"/>
        <path class="cls-2" d="m202.61,109.06c-1.56,12.79-5.61,24.79-12.12,35.91-1.67,2.84-2.78,2.89-4.67.33-2.17-2.89-4.39-5.73-6.67-8.45-5.61-6.67-11.62-12.9-18.9-17.73-.89-.61-1.72-1.45-3-1.17-.06.06-.11.06-.06.11,0-.06-.06,0-.06,0v-.06c-.06-1.06-.94-1.45-1.67-1.95-10.01-7.28-15.18-17.12-15.06-29.46.06-6.5,1.45-12.84,3.78-18.96.83-2.17,1.83-2.5,3.78-1.17,2.56,1.67,4.89,3.61,7.12,5.67,2.95,2.72,5.17,6.06,7.84,9.06,1.72,2,3.95,3.11,6.67,3.22,3.95.17,6.95-1.5,9.12-4.67,4.11-6.23,8.12-12.45,12.17-18.73.39-.67,1-1.33.61-2.28l.06-.06c.44.11.83-.11,1.22-.33,1.39-.95,2.28-.33,2.95,1,.22.5.39,1,.61,1.5,6.34,15.51,8.34,31.63,6.28,48.19Z"/>
        <g class="cls-4">
          <path class="cls-1" d="m109.17,86.69c-5.55,0-10.06,4.51-10.06,10.06s4.51,10.06,10.06,10.06c3.73,0,6.97-2.02,8.71-5.03h54.84v-5.03c0-35.05-28.51-63.55-63.55-63.55-16.97,0-32.93,6.61-44.93,18.61-6.59,6.59-11.55,14.37-14.68,22.85l9.43,3.5c2.64-7.14,6.82-13.69,12.36-19.24,10.1-10.11,23.54-15.67,37.82-15.67,27.81,0,50.72,21.32,53.26,48.46h-16.11c-2.47-18.3-18.19-32.46-37.15-32.46-10.01,0-19.42,3.9-26.51,10.98-5.88,5.88-9.56,13.37-10.64,21.47h-26.2c-.13,1.66-.2,3.34-.2,5.03,0,35.05,28.51,63.55,63.55,63.55,16.98,0,32.94-6.61,44.94-18.61l3.56-3.56-25.54-25.54-3.56,3.56c-5.18,5.18-12.07,8.03-19.4,8.03-9.23,0-17.4-4.59-22.38-11.6h0s0,.01,0,.01h0s-9.68,3.59-9.68,3.59c1.55,2.54,3.41,4.92,5.57,7.08,1.69,1.69,3.51,3.19,5.44,4.5l.02-.02c6,4.1,13.25,6.5,21.05,6.5,8.32,0,16.22-2.69,22.72-7.66l11.39,11.39c-9.57,7.94-21.51,12.27-34.11,12.27-27.8,0-50.7-21.32-53.25-48.47h26.3c-.3-1.63-.48-3.31-.48-5.03,0-7.32,2.85-14.21,8.04-19.4,5.18-5.18,12.07-8.03,19.39-8.03,13.41,0,24.59,9.67,26.96,22.4h-18.24c-1.74-3-4.99-5.03-8.71-5.03Z"/>
        </g>
      </g>
    </g>
  </g>
</svg>